<?xml version="1.0" encoding="utf-8"?>
<!-- Generator: Adobe Illustrator 15.0.0, SVG Export Plug-In  -->
<!DOCTYPE svg PUBLIC "-//W3C//DTD SVG 1.1//EN" "http://www.w3.org/Graphics/SVG/1.1/DTD/svg11.dtd" [
	<!ENTITY ns_flows "http://ns.adobe.com/Flows/1.0/">
]>
<svg version="1.1"
	 xmlns="http://www.w3.org/2000/svg" xmlns:xlink="http://www.w3.org/1999/xlink" xmlns:a="http://ns.adobe.com/AdobeSVGViewerExtensions/3.0/"
	 x="0px" y="0px" width="250px" height="250px" viewBox="-9.266 -8.646 250 250" enable-background="new -9.266 -8.646 250 250"
	 xml:space="preserve">
<defs>
</defs>
<path fill="#4EB6E8" d="M104.409,58.872c-21.718,0-39.387,17.669-39.387,39.388c0,21.716,17.669,39.384,39.387,39.384
	s39.388-17.668,39.388-39.384C143.797,76.541,126.127,58.872,104.409,58.872z"/>
<path fill="#4EB6E8" d="M116.452,0C52.138,0,0,52.137,0,116.454c0,64.313,52.138,116.45,116.452,116.45
	c64.314,0,116.451-52.137,116.451-116.45C232.903,52.137,180.766,0,116.452,0z M185.691,183.916c-7.098,7.091-18.592,7.091-25.689,0
	l-27.941-27.948c-0.642-0.642-1.223-1.319-1.748-2.026c-7.875,3.678-16.652,5.737-25.903,5.737
	c-33.868,0-61.421-27.553-61.421-61.418c0-33.869,27.554-61.423,61.421-61.423c33.869,0,61.422,27.554,61.422,61.423
	c0,11.487-3.174,22.246-8.685,31.451c0.199,0.183,0.396,0.368,0.59,0.562l27.941,27.947
	C192.776,165.317,192.783,176.811,185.691,183.916z"/>
</svg>
